<mxfile host="app.diagrams.net" modified="2021-04-15T13:37:34.811Z" agent="5.0 (Windows NT 10.0; Win64; x64) AppleWebKit/537.36 (KHTML, like Gecko) Chrome/88.0.4324.104 Safari/537.36" etag="wxH09vYcSiP5SWC0zCY5" version="14.6.0" type="github">
  <diagram id="72RIDOFjgwgf8fgMc3nl" name="第 1 页">
    <mxGraphModel dx="1450" dy="992" grid="1" gridSize="10" guides="1" tooltips="1" connect="1" arrows="1" fold="1" page="1" pageScale="1" pageWidth="827" pageHeight="1169" math="0" shadow="0">
      <root>
        <mxCell id="0" />
        <mxCell id="1" parent="0" />
        <mxCell id="oBtHDwOp3o_CFWQKpaH9-7" style="edgeStyle=orthogonalEdgeStyle;curved=1;rounded=0;orthogonalLoop=1;jettySize=auto;html=1;exitX=0.5;exitY=1;exitDx=0;exitDy=0;" edge="1" parent="1" source="oBtHDwOp3o_CFWQKpaH9-1" target="oBtHDwOp3o_CFWQKpaH9-2">
          <mxGeometry relative="1" as="geometry" />
        </mxCell>
        <mxCell id="oBtHDwOp3o_CFWQKpaH9-8" style="edgeStyle=orthogonalEdgeStyle;curved=1;rounded=0;orthogonalLoop=1;jettySize=auto;html=1;exitX=0.5;exitY=1;exitDx=0;exitDy=0;entryX=0.5;entryY=0;entryDx=0;entryDy=0;" edge="1" parent="1" source="oBtHDwOp3o_CFWQKpaH9-1" target="oBtHDwOp3o_CFWQKpaH9-3">
          <mxGeometry relative="1" as="geometry" />
        </mxCell>
        <mxCell id="oBtHDwOp3o_CFWQKpaH9-1" value="&lt;font style=&quot;font-size: 16px&quot;&gt;3&lt;/font&gt;" style="ellipse;whiteSpace=wrap;html=1;aspect=fixed;" vertex="1" parent="1">
          <mxGeometry x="200" y="80" width="80" height="80" as="geometry" />
        </mxCell>
        <mxCell id="oBtHDwOp3o_CFWQKpaH9-2" value="&lt;font style=&quot;font-size: 16px&quot;&gt;9&lt;/font&gt;" style="ellipse;whiteSpace=wrap;html=1;aspect=fixed;" vertex="1" parent="1">
          <mxGeometry x="80" y="240" width="80" height="80" as="geometry" />
        </mxCell>
        <mxCell id="oBtHDwOp3o_CFWQKpaH9-10" style="edgeStyle=orthogonalEdgeStyle;curved=1;rounded=0;orthogonalLoop=1;jettySize=auto;html=1;exitX=0.5;exitY=1;exitDx=0;exitDy=0;entryX=0.5;entryY=0;entryDx=0;entryDy=0;" edge="1" parent="1" source="oBtHDwOp3o_CFWQKpaH9-3" target="oBtHDwOp3o_CFWQKpaH9-4">
          <mxGeometry relative="1" as="geometry" />
        </mxCell>
        <mxCell id="oBtHDwOp3o_CFWQKpaH9-11" style="edgeStyle=orthogonalEdgeStyle;curved=1;rounded=0;orthogonalLoop=1;jettySize=auto;html=1;exitX=0.5;exitY=1;exitDx=0;exitDy=0;entryX=0.5;entryY=0;entryDx=0;entryDy=0;" edge="1" parent="1" source="oBtHDwOp3o_CFWQKpaH9-3" target="oBtHDwOp3o_CFWQKpaH9-5">
          <mxGeometry relative="1" as="geometry" />
        </mxCell>
        <mxCell id="oBtHDwOp3o_CFWQKpaH9-3" value="&lt;font style=&quot;font-size: 16px&quot;&gt;20&lt;/font&gt;" style="ellipse;whiteSpace=wrap;html=1;aspect=fixed;" vertex="1" parent="1">
          <mxGeometry x="320" y="240" width="80" height="80" as="geometry" />
        </mxCell>
        <mxCell id="oBtHDwOp3o_CFWQKpaH9-4" value="&lt;font style=&quot;font-size: 16px&quot;&gt;15&lt;/font&gt;" style="ellipse;whiteSpace=wrap;html=1;aspect=fixed;" vertex="1" parent="1">
          <mxGeometry x="250" y="400" width="80" height="80" as="geometry" />
        </mxCell>
        <mxCell id="oBtHDwOp3o_CFWQKpaH9-5" value="&lt;font style=&quot;font-size: 16px&quot;&gt;7&lt;/font&gt;" style="ellipse;whiteSpace=wrap;html=1;aspect=fixed;" vertex="1" parent="1">
          <mxGeometry x="410" y="400" width="80" height="80" as="geometry" />
        </mxCell>
        <mxCell id="oBtHDwOp3o_CFWQKpaH9-12" value="&lt;font style=&quot;font-size: 16px&quot;&gt;第一步&lt;/font&gt;" style="text;html=1;strokeColor=none;fillColor=none;align=center;verticalAlign=middle;whiteSpace=wrap;rounded=0;" vertex="1" parent="1">
          <mxGeometry x="120" y="80" width="50" height="20" as="geometry" />
        </mxCell>
        <mxCell id="oBtHDwOp3o_CFWQKpaH9-16" value="" style="curved=1;endArrow=classic;html=1;strokeWidth=3;" edge="1" parent="1">
          <mxGeometry width="50" height="50" relative="1" as="geometry">
            <mxPoint x="290" y="40" as="sourcePoint" />
            <mxPoint x="250" y="70" as="targetPoint" />
            <Array as="points">
              <mxPoint x="260" y="40" />
            </Array>
          </mxGeometry>
        </mxCell>
        <mxCell id="oBtHDwOp3o_CFWQKpaH9-17" value="&lt;font style=&quot;font-size: 16px&quot;&gt;res = {3}&lt;/font&gt;" style="text;html=1;strokeColor=none;fillColor=none;align=center;verticalAlign=middle;whiteSpace=wrap;rounded=0;" vertex="1" parent="1">
          <mxGeometry x="310" y="80" width="70" height="20" as="geometry" />
        </mxCell>
        <mxCell id="oBtHDwOp3o_CFWQKpaH9-18" style="edgeStyle=orthogonalEdgeStyle;curved=1;rounded=0;orthogonalLoop=1;jettySize=auto;html=1;exitX=0.5;exitY=1;exitDx=0;exitDy=0;" edge="1" parent="1" source="oBtHDwOp3o_CFWQKpaH9-20" target="oBtHDwOp3o_CFWQKpaH9-21">
          <mxGeometry relative="1" as="geometry" />
        </mxCell>
        <mxCell id="oBtHDwOp3o_CFWQKpaH9-19" style="edgeStyle=orthogonalEdgeStyle;curved=1;rounded=0;orthogonalLoop=1;jettySize=auto;html=1;exitX=0.5;exitY=1;exitDx=0;exitDy=0;entryX=0.5;entryY=0;entryDx=0;entryDy=0;" edge="1" parent="1" source="oBtHDwOp3o_CFWQKpaH9-20" target="oBtHDwOp3o_CFWQKpaH9-24">
          <mxGeometry relative="1" as="geometry" />
        </mxCell>
        <mxCell id="oBtHDwOp3o_CFWQKpaH9-20" value="&lt;font style=&quot;font-size: 16px&quot;&gt;3&lt;/font&gt;" style="ellipse;whiteSpace=wrap;html=1;aspect=fixed;" vertex="1" parent="1">
          <mxGeometry x="640" y="80" width="80" height="80" as="geometry" />
        </mxCell>
        <mxCell id="oBtHDwOp3o_CFWQKpaH9-21" value="&lt;font style=&quot;font-size: 16px&quot;&gt;9&lt;/font&gt;" style="ellipse;whiteSpace=wrap;html=1;aspect=fixed;" vertex="1" parent="1">
          <mxGeometry x="520" y="240" width="80" height="80" as="geometry" />
        </mxCell>
        <mxCell id="oBtHDwOp3o_CFWQKpaH9-22" style="edgeStyle=orthogonalEdgeStyle;curved=1;rounded=0;orthogonalLoop=1;jettySize=auto;html=1;exitX=0.5;exitY=1;exitDx=0;exitDy=0;entryX=0.5;entryY=0;entryDx=0;entryDy=0;" edge="1" parent="1" source="oBtHDwOp3o_CFWQKpaH9-24" target="oBtHDwOp3o_CFWQKpaH9-25">
          <mxGeometry relative="1" as="geometry" />
        </mxCell>
        <mxCell id="oBtHDwOp3o_CFWQKpaH9-23" style="edgeStyle=orthogonalEdgeStyle;curved=1;rounded=0;orthogonalLoop=1;jettySize=auto;html=1;exitX=0.5;exitY=1;exitDx=0;exitDy=0;entryX=0.5;entryY=0;entryDx=0;entryDy=0;" edge="1" parent="1" source="oBtHDwOp3o_CFWQKpaH9-24" target="oBtHDwOp3o_CFWQKpaH9-26">
          <mxGeometry relative="1" as="geometry" />
        </mxCell>
        <mxCell id="oBtHDwOp3o_CFWQKpaH9-24" value="&lt;font style=&quot;font-size: 16px&quot;&gt;20&lt;/font&gt;" style="ellipse;whiteSpace=wrap;html=1;aspect=fixed;" vertex="1" parent="1">
          <mxGeometry x="760" y="240" width="80" height="80" as="geometry" />
        </mxCell>
        <mxCell id="oBtHDwOp3o_CFWQKpaH9-25" value="&lt;font style=&quot;font-size: 16px&quot;&gt;15&lt;/font&gt;" style="ellipse;whiteSpace=wrap;html=1;aspect=fixed;" vertex="1" parent="1">
          <mxGeometry x="690" y="400" width="80" height="80" as="geometry" />
        </mxCell>
        <mxCell id="oBtHDwOp3o_CFWQKpaH9-26" value="&lt;font style=&quot;font-size: 16px&quot;&gt;7&lt;/font&gt;" style="ellipse;whiteSpace=wrap;html=1;aspect=fixed;" vertex="1" parent="1">
          <mxGeometry x="850" y="400" width="80" height="80" as="geometry" />
        </mxCell>
        <mxCell id="oBtHDwOp3o_CFWQKpaH9-27" value="&lt;font style=&quot;font-size: 16px&quot;&gt;第二步&lt;/font&gt;" style="text;html=1;strokeColor=none;fillColor=none;align=center;verticalAlign=middle;whiteSpace=wrap;rounded=0;" vertex="1" parent="1">
          <mxGeometry x="560" y="80" width="50" height="20" as="geometry" />
        </mxCell>
        <mxCell id="oBtHDwOp3o_CFWQKpaH9-29" value="" style="curved=1;endArrow=classic;html=1;strokeWidth=3;" edge="1" parent="1">
          <mxGeometry width="50" height="50" relative="1" as="geometry">
            <mxPoint x="625" y="120" as="sourcePoint" />
            <mxPoint x="545" y="220" as="targetPoint" />
            <Array as="points">
              <mxPoint x="555" y="130" />
            </Array>
          </mxGeometry>
        </mxCell>
        <mxCell id="oBtHDwOp3o_CFWQKpaH9-30" value="&lt;font style=&quot;font-size: 16px&quot;&gt;res = {3, 9}&lt;/font&gt;" style="text;html=1;strokeColor=none;fillColor=none;align=center;verticalAlign=middle;whiteSpace=wrap;rounded=0;" vertex="1" parent="1">
          <mxGeometry x="750" y="80" width="80" height="20" as="geometry" />
        </mxCell>
        <mxCell id="oBtHDwOp3o_CFWQKpaH9-31" style="edgeStyle=orthogonalEdgeStyle;curved=1;rounded=0;orthogonalLoop=1;jettySize=auto;html=1;exitX=0.5;exitY=1;exitDx=0;exitDy=0;" edge="1" parent="1" source="oBtHDwOp3o_CFWQKpaH9-33" target="oBtHDwOp3o_CFWQKpaH9-34">
          <mxGeometry relative="1" as="geometry" />
        </mxCell>
        <mxCell id="oBtHDwOp3o_CFWQKpaH9-32" style="edgeStyle=orthogonalEdgeStyle;curved=1;rounded=0;orthogonalLoop=1;jettySize=auto;html=1;exitX=0.5;exitY=1;exitDx=0;exitDy=0;entryX=0.5;entryY=0;entryDx=0;entryDy=0;" edge="1" parent="1" source="oBtHDwOp3o_CFWQKpaH9-33" target="oBtHDwOp3o_CFWQKpaH9-37">
          <mxGeometry relative="1" as="geometry" />
        </mxCell>
        <mxCell id="oBtHDwOp3o_CFWQKpaH9-33" value="&lt;font style=&quot;font-size: 16px&quot;&gt;3&lt;/font&gt;" style="ellipse;whiteSpace=wrap;html=1;aspect=fixed;" vertex="1" parent="1">
          <mxGeometry x="200" y="550" width="80" height="80" as="geometry" />
        </mxCell>
        <mxCell id="oBtHDwOp3o_CFWQKpaH9-34" value="&lt;font style=&quot;font-size: 16px&quot;&gt;9&lt;/font&gt;" style="ellipse;whiteSpace=wrap;html=1;aspect=fixed;" vertex="1" parent="1">
          <mxGeometry x="80" y="710" width="80" height="80" as="geometry" />
        </mxCell>
        <mxCell id="oBtHDwOp3o_CFWQKpaH9-35" style="edgeStyle=orthogonalEdgeStyle;curved=1;rounded=0;orthogonalLoop=1;jettySize=auto;html=1;exitX=0.5;exitY=1;exitDx=0;exitDy=0;entryX=0.5;entryY=0;entryDx=0;entryDy=0;" edge="1" parent="1" source="oBtHDwOp3o_CFWQKpaH9-37" target="oBtHDwOp3o_CFWQKpaH9-38">
          <mxGeometry relative="1" as="geometry" />
        </mxCell>
        <mxCell id="oBtHDwOp3o_CFWQKpaH9-36" style="edgeStyle=orthogonalEdgeStyle;curved=1;rounded=0;orthogonalLoop=1;jettySize=auto;html=1;exitX=0.5;exitY=1;exitDx=0;exitDy=0;entryX=0.5;entryY=0;entryDx=0;entryDy=0;" edge="1" parent="1" source="oBtHDwOp3o_CFWQKpaH9-37" target="oBtHDwOp3o_CFWQKpaH9-39">
          <mxGeometry relative="1" as="geometry" />
        </mxCell>
        <mxCell id="oBtHDwOp3o_CFWQKpaH9-37" value="&lt;font style=&quot;font-size: 16px&quot;&gt;20&lt;/font&gt;" style="ellipse;whiteSpace=wrap;html=1;aspect=fixed;" vertex="1" parent="1">
          <mxGeometry x="320" y="710" width="80" height="80" as="geometry" />
        </mxCell>
        <mxCell id="oBtHDwOp3o_CFWQKpaH9-38" value="&lt;font style=&quot;font-size: 16px&quot;&gt;15&lt;/font&gt;" style="ellipse;whiteSpace=wrap;html=1;aspect=fixed;" vertex="1" parent="1">
          <mxGeometry x="250" y="870" width="80" height="80" as="geometry" />
        </mxCell>
        <mxCell id="oBtHDwOp3o_CFWQKpaH9-39" value="&lt;font style=&quot;font-size: 16px&quot;&gt;7&lt;/font&gt;" style="ellipse;whiteSpace=wrap;html=1;aspect=fixed;" vertex="1" parent="1">
          <mxGeometry x="410" y="870" width="80" height="80" as="geometry" />
        </mxCell>
        <mxCell id="oBtHDwOp3o_CFWQKpaH9-40" value="&lt;font style=&quot;font-size: 16px&quot;&gt;第三步&lt;/font&gt;" style="text;html=1;strokeColor=none;fillColor=none;align=center;verticalAlign=middle;whiteSpace=wrap;rounded=0;" vertex="1" parent="1">
          <mxGeometry x="120" y="550" width="50" height="20" as="geometry" />
        </mxCell>
        <mxCell id="oBtHDwOp3o_CFWQKpaH9-41" value="" style="curved=1;endArrow=classic;html=1;strokeWidth=3;" edge="1" parent="1">
          <mxGeometry width="50" height="50" relative="1" as="geometry">
            <mxPoint x="100" y="690" as="sourcePoint" />
            <mxPoint x="180" y="610" as="targetPoint" />
            <Array as="points">
              <mxPoint x="100" y="660" />
              <mxPoint x="135" y="620" />
            </Array>
          </mxGeometry>
        </mxCell>
        <mxCell id="oBtHDwOp3o_CFWQKpaH9-42" value="&lt;font style=&quot;font-size: 16px&quot;&gt;res = {3}&lt;/font&gt;" style="text;html=1;strokeColor=none;fillColor=none;align=center;verticalAlign=middle;whiteSpace=wrap;rounded=0;" vertex="1" parent="1">
          <mxGeometry x="310" y="550" width="80" height="20" as="geometry" />
        </mxCell>
        <mxCell id="oBtHDwOp3o_CFWQKpaH9-43" value="" style="endArrow=none;dashed=1;html=1;strokeWidth=3;" edge="1" parent="1">
          <mxGeometry width="50" height="50" relative="1" as="geometry">
            <mxPoint x="80" y="520" as="sourcePoint" />
            <mxPoint x="1386.6666666666667" y="520" as="targetPoint" />
          </mxGeometry>
        </mxCell>
        <mxCell id="oBtHDwOp3o_CFWQKpaH9-44" value="" style="endArrow=classic;html=1;strokeWidth=3;dashed=1;" edge="1" parent="1">
          <mxGeometry width="50" height="50" relative="1" as="geometry">
            <mxPoint x="120" y="800" as="sourcePoint" />
            <mxPoint x="120" y="860" as="targetPoint" />
          </mxGeometry>
        </mxCell>
        <mxCell id="oBtHDwOp3o_CFWQKpaH9-45" value="&lt;font style=&quot;font-size: 16px&quot;&gt;NULL&lt;/font&gt;" style="text;html=1;strokeColor=none;fillColor=none;align=center;verticalAlign=middle;whiteSpace=wrap;rounded=0;" vertex="1" parent="1">
          <mxGeometry x="100" y="870" width="40" height="20" as="geometry" />
        </mxCell>
        <mxCell id="oBtHDwOp3o_CFWQKpaH9-46" value="&lt;font style=&quot;font-size: 16px&quot;&gt;因为左右子树都为NULL，所以向上返回&lt;/font&gt;" style="text;html=1;strokeColor=none;fillColor=none;align=center;verticalAlign=middle;whiteSpace=wrap;rounded=0;" vertex="1" parent="1">
          <mxGeometry x="150" y="820" width="90" height="20" as="geometry" />
        </mxCell>
        <mxCell id="oBtHDwOp3o_CFWQKpaH9-47" style="edgeStyle=orthogonalEdgeStyle;curved=1;rounded=0;orthogonalLoop=1;jettySize=auto;html=1;exitX=0.5;exitY=1;exitDx=0;exitDy=0;" edge="1" parent="1" source="oBtHDwOp3o_CFWQKpaH9-49" target="oBtHDwOp3o_CFWQKpaH9-50">
          <mxGeometry relative="1" as="geometry" />
        </mxCell>
        <mxCell id="oBtHDwOp3o_CFWQKpaH9-48" style="edgeStyle=orthogonalEdgeStyle;curved=1;rounded=0;orthogonalLoop=1;jettySize=auto;html=1;exitX=0.5;exitY=1;exitDx=0;exitDy=0;entryX=0.5;entryY=0;entryDx=0;entryDy=0;" edge="1" parent="1" source="oBtHDwOp3o_CFWQKpaH9-49" target="oBtHDwOp3o_CFWQKpaH9-53">
          <mxGeometry relative="1" as="geometry" />
        </mxCell>
        <mxCell id="oBtHDwOp3o_CFWQKpaH9-49" value="&lt;font style=&quot;font-size: 16px&quot;&gt;3&lt;/font&gt;" style="ellipse;whiteSpace=wrap;html=1;aspect=fixed;" vertex="1" parent="1">
          <mxGeometry x="640" y="550" width="80" height="80" as="geometry" />
        </mxCell>
        <mxCell id="oBtHDwOp3o_CFWQKpaH9-50" value="&lt;font style=&quot;font-size: 16px&quot;&gt;9&lt;/font&gt;" style="ellipse;whiteSpace=wrap;html=1;aspect=fixed;" vertex="1" parent="1">
          <mxGeometry x="520" y="710" width="80" height="80" as="geometry" />
        </mxCell>
        <mxCell id="oBtHDwOp3o_CFWQKpaH9-51" style="edgeStyle=orthogonalEdgeStyle;curved=1;rounded=0;orthogonalLoop=1;jettySize=auto;html=1;exitX=0.5;exitY=1;exitDx=0;exitDy=0;entryX=0.5;entryY=0;entryDx=0;entryDy=0;" edge="1" parent="1" source="oBtHDwOp3o_CFWQKpaH9-53" target="oBtHDwOp3o_CFWQKpaH9-54">
          <mxGeometry relative="1" as="geometry" />
        </mxCell>
        <mxCell id="oBtHDwOp3o_CFWQKpaH9-52" style="edgeStyle=orthogonalEdgeStyle;curved=1;rounded=0;orthogonalLoop=1;jettySize=auto;html=1;exitX=0.5;exitY=1;exitDx=0;exitDy=0;entryX=0.5;entryY=0;entryDx=0;entryDy=0;" edge="1" parent="1" source="oBtHDwOp3o_CFWQKpaH9-53" target="oBtHDwOp3o_CFWQKpaH9-55">
          <mxGeometry relative="1" as="geometry" />
        </mxCell>
        <mxCell id="oBtHDwOp3o_CFWQKpaH9-53" value="&lt;font style=&quot;font-size: 16px&quot;&gt;20&lt;/font&gt;" style="ellipse;whiteSpace=wrap;html=1;aspect=fixed;" vertex="1" parent="1">
          <mxGeometry x="760" y="710" width="80" height="80" as="geometry" />
        </mxCell>
        <mxCell id="oBtHDwOp3o_CFWQKpaH9-54" value="&lt;font style=&quot;font-size: 16px&quot;&gt;15&lt;/font&gt;" style="ellipse;whiteSpace=wrap;html=1;aspect=fixed;" vertex="1" parent="1">
          <mxGeometry x="690" y="870" width="80" height="80" as="geometry" />
        </mxCell>
        <mxCell id="oBtHDwOp3o_CFWQKpaH9-55" value="&lt;font style=&quot;font-size: 16px&quot;&gt;7&lt;/font&gt;" style="ellipse;whiteSpace=wrap;html=1;aspect=fixed;" vertex="1" parent="1">
          <mxGeometry x="850" y="870" width="80" height="80" as="geometry" />
        </mxCell>
        <mxCell id="oBtHDwOp3o_CFWQKpaH9-56" value="&lt;font style=&quot;font-size: 16px&quot;&gt;第四步&lt;/font&gt;" style="text;html=1;strokeColor=none;fillColor=none;align=center;verticalAlign=middle;whiteSpace=wrap;rounded=0;" vertex="1" parent="1">
          <mxGeometry x="560" y="550" width="50" height="20" as="geometry" />
        </mxCell>
        <mxCell id="oBtHDwOp3o_CFWQKpaH9-57" value="" style="curved=1;endArrow=classic;html=1;strokeWidth=3;" edge="1" parent="1">
          <mxGeometry width="50" height="50" relative="1" as="geometry">
            <mxPoint x="750" y="600" as="sourcePoint" />
            <mxPoint x="820" y="675" as="targetPoint" />
            <Array as="points">
              <mxPoint x="790" y="600" />
              <mxPoint x="820" y="625" />
            </Array>
          </mxGeometry>
        </mxCell>
        <mxCell id="oBtHDwOp3o_CFWQKpaH9-58" value="&lt;font style=&quot;font-size: 16px&quot;&gt;res = {3，20}&lt;/font&gt;" style="text;html=1;strokeColor=none;fillColor=none;align=center;verticalAlign=middle;whiteSpace=wrap;rounded=0;" vertex="1" parent="1">
          <mxGeometry x="750" y="550" width="100" height="20" as="geometry" />
        </mxCell>
        <mxCell id="oBtHDwOp3o_CFWQKpaH9-59" value="" style="endArrow=classic;html=1;strokeWidth=3;dashed=1;" edge="1" parent="1">
          <mxGeometry width="50" height="50" relative="1" as="geometry">
            <mxPoint x="560" y="800" as="sourcePoint" />
            <mxPoint x="560" y="860" as="targetPoint" />
          </mxGeometry>
        </mxCell>
        <mxCell id="oBtHDwOp3o_CFWQKpaH9-60" value="&lt;font style=&quot;font-size: 16px&quot;&gt;NULL&lt;/font&gt;" style="text;html=1;strokeColor=none;fillColor=none;align=center;verticalAlign=middle;whiteSpace=wrap;rounded=0;" vertex="1" parent="1">
          <mxGeometry x="540" y="870" width="40" height="20" as="geometry" />
        </mxCell>
        <mxCell id="oBtHDwOp3o_CFWQKpaH9-61" value="&lt;font style=&quot;font-size: 16px&quot;&gt;因为左右子树都为NULL，所以向上返回&lt;/font&gt;" style="text;html=1;strokeColor=none;fillColor=none;align=center;verticalAlign=middle;whiteSpace=wrap;rounded=0;" vertex="1" parent="1">
          <mxGeometry x="590" y="820" width="90" height="20" as="geometry" />
        </mxCell>
        <mxCell id="oBtHDwOp3o_CFWQKpaH9-62" style="edgeStyle=orthogonalEdgeStyle;curved=1;rounded=0;orthogonalLoop=1;jettySize=auto;html=1;exitX=0.5;exitY=1;exitDx=0;exitDy=0;" edge="1" parent="1" source="oBtHDwOp3o_CFWQKpaH9-64" target="oBtHDwOp3o_CFWQKpaH9-65">
          <mxGeometry relative="1" as="geometry" />
        </mxCell>
        <mxCell id="oBtHDwOp3o_CFWQKpaH9-63" style="edgeStyle=orthogonalEdgeStyle;curved=1;rounded=0;orthogonalLoop=1;jettySize=auto;html=1;exitX=0.5;exitY=1;exitDx=0;exitDy=0;entryX=0.5;entryY=0;entryDx=0;entryDy=0;" edge="1" parent="1" source="oBtHDwOp3o_CFWQKpaH9-64" target="oBtHDwOp3o_CFWQKpaH9-68">
          <mxGeometry relative="1" as="geometry" />
        </mxCell>
        <mxCell id="oBtHDwOp3o_CFWQKpaH9-64" value="&lt;font style=&quot;font-size: 16px&quot;&gt;3&lt;/font&gt;" style="ellipse;whiteSpace=wrap;html=1;aspect=fixed;" vertex="1" parent="1">
          <mxGeometry x="1080" y="80" width="80" height="80" as="geometry" />
        </mxCell>
        <mxCell id="oBtHDwOp3o_CFWQKpaH9-65" value="&lt;font style=&quot;font-size: 16px&quot;&gt;9&lt;/font&gt;" style="ellipse;whiteSpace=wrap;html=1;aspect=fixed;" vertex="1" parent="1">
          <mxGeometry x="960" y="240" width="80" height="80" as="geometry" />
        </mxCell>
        <mxCell id="oBtHDwOp3o_CFWQKpaH9-66" style="edgeStyle=orthogonalEdgeStyle;curved=1;rounded=0;orthogonalLoop=1;jettySize=auto;html=1;exitX=0.5;exitY=1;exitDx=0;exitDy=0;entryX=0.5;entryY=0;entryDx=0;entryDy=0;" edge="1" parent="1" source="oBtHDwOp3o_CFWQKpaH9-68" target="oBtHDwOp3o_CFWQKpaH9-69">
          <mxGeometry relative="1" as="geometry" />
        </mxCell>
        <mxCell id="oBtHDwOp3o_CFWQKpaH9-67" style="edgeStyle=orthogonalEdgeStyle;curved=1;rounded=0;orthogonalLoop=1;jettySize=auto;html=1;exitX=0.5;exitY=1;exitDx=0;exitDy=0;entryX=0.5;entryY=0;entryDx=0;entryDy=0;" edge="1" parent="1" source="oBtHDwOp3o_CFWQKpaH9-68" target="oBtHDwOp3o_CFWQKpaH9-70">
          <mxGeometry relative="1" as="geometry" />
        </mxCell>
        <mxCell id="oBtHDwOp3o_CFWQKpaH9-68" value="&lt;font style=&quot;font-size: 16px&quot;&gt;20&lt;/font&gt;" style="ellipse;whiteSpace=wrap;html=1;aspect=fixed;" vertex="1" parent="1">
          <mxGeometry x="1200" y="240" width="80" height="80" as="geometry" />
        </mxCell>
        <mxCell id="oBtHDwOp3o_CFWQKpaH9-69" value="&lt;font style=&quot;font-size: 16px&quot;&gt;15&lt;/font&gt;" style="ellipse;whiteSpace=wrap;html=1;aspect=fixed;" vertex="1" parent="1">
          <mxGeometry x="1130" y="400" width="80" height="80" as="geometry" />
        </mxCell>
        <mxCell id="oBtHDwOp3o_CFWQKpaH9-70" value="&lt;font style=&quot;font-size: 16px&quot;&gt;7&lt;/font&gt;" style="ellipse;whiteSpace=wrap;html=1;aspect=fixed;" vertex="1" parent="1">
          <mxGeometry x="1290" y="400" width="80" height="80" as="geometry" />
        </mxCell>
        <mxCell id="oBtHDwOp3o_CFWQKpaH9-71" value="&lt;font style=&quot;font-size: 16px&quot;&gt;第三步&lt;/font&gt;" style="text;html=1;strokeColor=none;fillColor=none;align=center;verticalAlign=middle;whiteSpace=wrap;rounded=0;" vertex="1" parent="1">
          <mxGeometry x="1000" y="80" width="50" height="20" as="geometry" />
        </mxCell>
        <mxCell id="oBtHDwOp3o_CFWQKpaH9-72" value="" style="curved=1;endArrow=classic;html=1;strokeWidth=3;" edge="1" parent="1">
          <mxGeometry width="50" height="50" relative="1" as="geometry">
            <mxPoint x="980" y="220" as="sourcePoint" />
            <mxPoint x="1060" y="140" as="targetPoint" />
            <Array as="points">
              <mxPoint x="980" y="190" />
              <mxPoint x="1015" y="150" />
            </Array>
          </mxGeometry>
        </mxCell>
        <mxCell id="oBtHDwOp3o_CFWQKpaH9-73" value="&lt;font style=&quot;font-size: 16px&quot;&gt;res = {3}&lt;/font&gt;" style="text;html=1;strokeColor=none;fillColor=none;align=center;verticalAlign=middle;whiteSpace=wrap;rounded=0;" vertex="1" parent="1">
          <mxGeometry x="1190" y="80" width="80" height="20" as="geometry" />
        </mxCell>
        <mxCell id="oBtHDwOp3o_CFWQKpaH9-74" value="" style="endArrow=classic;html=1;strokeWidth=3;dashed=1;" edge="1" parent="1">
          <mxGeometry width="50" height="50" relative="1" as="geometry">
            <mxPoint x="1000" y="330.0000000000002" as="sourcePoint" />
            <mxPoint x="1000" y="390.0000000000002" as="targetPoint" />
          </mxGeometry>
        </mxCell>
        <mxCell id="oBtHDwOp3o_CFWQKpaH9-75" value="&lt;font style=&quot;font-size: 16px&quot;&gt;NULL&lt;/font&gt;" style="text;html=1;strokeColor=none;fillColor=none;align=center;verticalAlign=middle;whiteSpace=wrap;rounded=0;" vertex="1" parent="1">
          <mxGeometry x="980" y="400" width="40" height="20" as="geometry" />
        </mxCell>
        <mxCell id="oBtHDwOp3o_CFWQKpaH9-76" value="&lt;font style=&quot;font-size: 16px&quot;&gt;因为左右子树都为NULL，所以向上返回&lt;/font&gt;" style="text;html=1;strokeColor=none;fillColor=none;align=center;verticalAlign=middle;whiteSpace=wrap;rounded=0;" vertex="1" parent="1">
          <mxGeometry x="1030" y="350" width="90" height="20" as="geometry" />
        </mxCell>
      </root>
    </mxGraphModel>
  </diagram>
</mxfile>
